<svg width="373" height="49" viewBox="0 0 373 49" fill="none" xmlns="http://www.w3.org/2000/svg">
<path d="M8.18 43H0.692V2.856H8.18V43ZM8.908 21.472C9.948 20.0507 11.0573 18.5773 12.236 17.052C13.4493 15.492 14.6627 13.932 15.876 12.372C17.124 10.7773 18.3373 9.18266 19.516 7.588C20.7293 5.99333 21.856 4.416 22.896 2.856H30.904C29.8987 4.48533 28.7893 6.14933 27.576 7.848C26.3973 9.54666 25.2013 11.228 23.988 12.892C22.7747 14.5213 21.5787 16.0813 20.4 17.572C19.256 19.0627 18.216 20.3973 17.28 21.576L33.348 43H24.976L8.908 21.472ZM58.2723 21.004C59.2776 21.2813 60.2136 21.7147 61.0803 22.304C61.9469 22.8587 62.6923 23.552 63.3163 24.384C63.9403 25.216 64.4256 26.1867 64.7723 27.296C65.1536 28.3707 65.3443 29.532 65.3443 30.78C65.3443 32.548 65.0149 34.1947 64.3563 35.72C63.6976 37.2107 62.6749 38.528 61.2883 39.672C59.9363 40.7813 58.2203 41.6653 56.1403 42.324C54.0603 42.948 51.5989 43.26 48.7563 43.26C48.1323 43.26 47.3349 43.2253 46.3643 43.156C45.3936 43.1213 44.3536 43.0693 43.2443 43C42.1349 42.9307 41.0256 42.844 39.9163 42.74C38.8069 42.6013 37.7843 42.4453 36.8483 42.272V4.572C37.7843 4.19066 38.7723 3.844 39.8123 3.532C40.8523 3.22 41.9096 2.94267 42.9843 2.7C44.0589 2.45733 45.0989 2.284 46.1043 2.18C47.1096 2.04133 48.0629 1.972 48.9643 1.972C51.1136 1.972 53.0723 2.232 54.8403 2.752C56.6429 3.23733 58.1683 3.948 59.4162 4.884C60.6989 5.82 61.6869 6.964 62.3803 8.316C63.1083 9.63333 63.4723 11.124 63.4723 12.788C63.4723 13.7587 63.3336 14.6773 63.0563 15.544C62.7789 16.4107 62.3976 17.208 61.9123 17.936C61.4616 18.6293 60.9243 19.236 60.3003 19.756C59.6763 20.276 59.0003 20.692 58.2723 21.004ZM57.8043 30.624C57.8043 29.5493 57.5616 28.6133 57.0763 27.816C56.6256 27.0187 56.0016 26.36 55.2043 25.84C54.4416 25.32 53.5576 24.9387 52.5523 24.696C51.5469 24.4187 50.5069 24.28 49.4323 24.28H44.3363V37.176C45.3069 37.3147 46.1563 37.4187 46.8842 37.488C47.6123 37.5227 48.4963 37.54 49.5363 37.54C50.7496 37.54 51.8589 37.4187 52.8643 37.176C53.8696 36.9333 54.7363 36.5347 55.4643 35.98C56.1923 35.4253 56.7643 34.7147 57.1803 33.848C57.5963 32.9467 57.8043 31.872 57.8043 30.624ZM48.4442 18.716C49.4843 18.716 50.4549 18.5947 51.3563 18.352C52.2576 18.0747 53.0376 17.6933 53.6963 17.208C54.3896 16.688 54.9269 16.0813 55.3083 15.388C55.7243 14.6947 55.9323 13.8973 55.9323 12.996C55.9323 12.06 55.7416 11.2627 55.3603 10.604C54.9789 9.91067 54.4763 9.356 53.8523 8.94C53.2283 8.48933 52.5003 8.16 51.6683 7.952C50.8363 7.744 49.9696 7.64 49.0683 7.64C47.9589 7.64 47.0056 7.72667 46.2083 7.9C45.4456 8.03867 44.8216 8.17733 44.3363 8.316V18.716H48.4442ZM70.9806 42.376C70.9806 41.0587 71.3966 40.0187 72.2286 39.256C73.0952 38.4933 74.1179 38.112 75.2966 38.112C76.4752 38.112 77.4806 38.4933 78.3126 39.256C79.1446 40.0187 79.5606 41.0587 79.5606 42.376C79.5606 43.6933 79.1446 44.7333 78.3126 45.496C77.4806 46.2933 76.4752 46.692 75.2966 46.692C74.1179 46.692 73.0952 46.2933 72.2286 45.496C71.3966 44.7333 70.9806 43.6933 70.9806 42.376ZM79.3526 1.4L78.4166 34.316H72.2806L71.3446 1.4H79.3526Z" fill="#F8B500"/>
<path d="M144.411 35.2V40.764H100.783V35.2H118.879V28.128C117.145 27.7813 115.551 27.2093 114.095 26.412C112.673 25.58 111.443 24.592 110.403 23.448C109.363 22.304 108.548 21.0213 107.959 19.6C107.404 18.1787 107.127 16.6707 107.127 15.076C107.127 13.2387 107.508 11.5053 108.271 9.876C109.068 8.24667 110.143 6.82533 111.495 5.612C112.881 4.39867 114.511 3.44533 116.383 2.752C118.289 2.024 120.352 1.66 122.571 1.66C124.789 1.66 126.835 2.024 128.707 2.752C130.613 3.44533 132.26 4.39867 133.647 5.612C135.033 6.82533 136.108 8.24667 136.871 9.876C137.668 11.5053 138.067 13.2387 138.067 15.076C138.067 16.636 137.772 18.1267 137.183 19.548C136.628 20.9693 135.831 22.252 134.791 23.396C133.751 24.54 132.503 25.528 131.047 26.36C129.625 27.192 128.065 27.7813 126.367 28.128V35.2H144.411ZM114.407 15.076C114.407 16.116 114.597 17.1213 114.979 18.092C115.36 19.0627 115.897 19.9293 116.591 20.692C117.319 21.42 118.185 22.0093 119.191 22.46C120.196 22.876 121.323 23.084 122.571 23.084C123.819 23.084 124.945 22.876 125.951 22.46C126.956 22.0093 127.823 21.42 128.551 20.692C129.279 19.9293 129.833 19.0627 130.215 18.092C130.596 17.1213 130.787 16.116 130.787 15.076C130.787 14.036 130.596 13.0307 130.215 12.06C129.833 11.0893 129.279 10.24 128.551 9.512C127.823 8.74933 126.956 8.16 125.951 7.744C124.945 7.29333 123.819 7.068 122.571 7.068C121.323 7.068 120.196 7.29333 119.191 7.744C118.185 8.16 117.319 8.74933 116.591 9.512C115.897 10.24 115.36 11.0893 114.979 12.06C114.597 13.0307 114.407 14.036 114.407 15.076ZM161.227 0.203999V7.848C161.227 8.81867 161.4 9.512 161.747 9.928C162.094 10.344 162.822 10.552 163.931 10.552C164.451 10.552 165.214 10.552 166.219 10.552C167.224 10.552 168.351 10.552 169.599 10.552C170.882 10.5173 172.234 10.5 173.655 10.5C175.111 10.4653 176.55 10.4307 177.971 10.396C179.392 10.3613 180.744 10.3267 182.027 10.292C183.344 10.2573 184.488 10.2227 185.459 10.188V15.18C184.454 15.2493 183.258 15.3187 181.871 15.388C180.519 15.4573 179.063 15.5267 177.503 15.596C175.978 15.6307 174.418 15.6653 172.823 15.7C171.228 15.7347 169.72 15.7693 168.299 15.804C166.878 15.804 165.578 15.8213 164.399 15.856C163.255 15.856 162.354 15.856 161.695 15.856C158.852 15.856 156.824 15.284 155.611 14.14C154.398 12.996 153.791 11.124 153.791 8.524V0.203999H161.227ZM147.603 24.072V18.872H191.231V24.072H147.603ZM183.431 27.14C184.61 27.14 185.199 27.7467 185.199 28.96V39.204C185.199 39.5507 185.06 39.828 184.783 40.036C184.54 40.244 184.211 40.348 183.795 40.348H160.967V42.636C160.967 43.2947 161.244 43.624 161.799 43.624H185.927V48.668H157.119C155.871 48.668 154.952 48.3907 154.363 47.836C153.808 47.316 153.531 46.4667 153.531 45.288V35.356H177.763V32.184H153.687V27.14H183.431ZM238.093 19.808C236.672 20.224 235.164 20.588 233.569 20.9C232.009 21.212 230.432 21.472 228.837 21.68C227.277 21.888 225.752 22.044 224.261 22.148C222.77 22.252 221.401 22.304 220.153 22.304C217.31 22.304 215.317 21.6973 214.173 20.484C213.029 19.236 212.457 17.3813 212.457 14.92V1.92H235.805C237.33 1.92 238.093 2.63067 238.093 4.052V19.808ZM234.193 33.432H244.281V0.203999H251.457V46.276H244.281V38.84H234.193V33.432ZM219.893 44.196C220.413 42.4973 220.794 40.712 221.037 38.84C221.314 36.968 221.453 35.096 221.453 33.224V31.248H210.013V25.84H223.013C224.296 25.84 225.682 25.8227 227.173 25.788C228.664 25.7187 230.189 25.6147 231.749 25.476C233.309 25.3373 234.869 25.164 236.429 24.956C238.024 24.748 239.566 24.488 241.057 24.176L241.733 28.7C240.069 29.2893 238.076 29.792 235.753 30.208C233.465 30.624 231.056 30.9187 228.525 31.092V33.12C228.525 34.1253 228.473 35.2 228.369 36.344C228.265 37.4533 228.109 38.58 227.901 39.724C227.693 40.8333 227.433 41.908 227.121 42.948C226.844 43.988 226.497 44.9067 226.081 45.704L219.893 44.196ZM231.073 7.172H219.477V13.828C219.477 14.3133 219.494 14.764 219.529 15.18C219.564 15.5613 219.668 15.8907 219.841 16.168C220.049 16.4453 220.326 16.6707 220.673 16.844C221.054 16.9827 221.574 17.052 222.233 17.052C223.065 17.052 224.261 17 225.821 16.896C227.416 16.792 229.166 16.5493 231.073 16.168V7.172ZM267.753 26.256C261.929 26.256 259.017 23.8293 259.017 18.976V1.764H280.233C281.828 1.764 282.625 2.56133 282.625 4.156V10.396H290.633V0.203999H297.757V27.192H290.633V15.908H282.625V23.136C279.575 24.072 276.819 24.8347 274.357 25.424C271.896 25.9787 269.695 26.256 267.753 26.256ZM297.757 48.668H290.321V35.356H266.089V29.896H295.469C296.995 29.896 297.757 30.676 297.757 32.236V48.668ZM275.553 7.172H266.089V18.352C266.089 19.2187 266.263 19.86 266.609 20.276C266.991 20.6573 267.632 20.848 268.533 20.848C269.747 20.848 270.873 20.7613 271.913 20.588C272.953 20.4147 274.167 20.1893 275.553 19.912V7.172ZM322.166 11.956C322.166 13.8973 322.01 15.7 321.698 17.364C322.634 18.3693 323.622 19.496 324.662 20.744C325.736 21.9573 326.776 23.2227 327.782 24.54C328.787 25.8227 329.723 27.088 330.59 28.336C331.491 29.584 332.271 30.7107 332.93 31.716C333.207 32.1667 333.294 32.548 333.19 32.86C333.086 33.172 332.86 33.4667 332.514 33.744L328.77 36.396C328.18 35.6333 327.522 34.7667 326.794 33.796C326.066 32.8253 325.286 31.82 324.454 30.78C323.622 29.7053 322.755 28.6307 321.854 27.556C320.987 26.4813 320.086 25.4413 319.15 24.436C318.283 25.9613 317.243 27.452 316.03 28.908C314.92 30.2947 313.69 31.7507 312.338 33.276C311.02 34.7667 309.772 36.032 308.594 37.072L304.174 33.224C305.491 31.768 306.722 30.312 307.866 28.856C309.044 27.3653 310.119 25.9267 311.09 24.54C311.852 23.4653 312.476 22.4427 312.962 21.472C313.447 20.5013 313.828 19.5307 314.106 18.56C314.383 17.5893 314.574 16.5667 314.678 15.492C314.816 14.4173 314.886 13.2387 314.886 11.956V9.044H305.682V3.532H331.942V9.044H322.166V11.956ZM344.578 46.276H337.402V0.203999H344.578V46.276ZM364.15 34.316H356.922V30.728C356.922 29.6187 357.009 28.6133 357.182 27.712C357.355 26.776 357.598 25.892 357.91 25.06C358.257 24.228 358.673 23.4307 359.158 22.668C359.678 21.8707 360.267 21.056 360.926 20.224C362.209 18.56 363.214 17.052 363.942 15.7C364.705 14.3133 365.086 12.9093 365.086 11.488C365.086 10.1707 364.583 9.06133 363.578 8.16C362.607 7.224 361.273 6.756 359.574 6.756C358.187 6.756 356.905 6.92933 355.726 7.276C354.547 7.62266 353.299 8.07333 351.982 8.628L350.266 3.896C351.722 3.064 353.265 2.35333 354.894 1.764C356.523 1.17466 358.17 0.879997 359.834 0.879997C361.81 0.879997 363.595 1.15733 365.19 1.712C366.785 2.232 368.137 2.96 369.246 3.896C370.355 4.832 371.205 5.95867 371.794 7.276C372.418 8.55866 372.73 9.96267 372.73 11.488C372.73 12.5973 372.574 13.6893 372.262 14.764C371.95 15.8387 371.551 16.8787 371.066 17.884C370.581 18.8547 370.009 19.7733 369.35 20.64C368.726 21.5067 368.102 22.304 367.478 23.032C366.889 23.7253 366.369 24.384 365.918 25.008C365.502 25.5973 365.155 26.204 364.878 26.828C364.635 27.4173 364.445 28.0413 364.306 28.7C364.202 29.3587 364.15 30.0867 364.15 30.884V34.316ZM356.194 42.376C356.194 41.0587 356.61 40.0187 357.442 39.256C358.309 38.4933 359.331 38.112 360.51 38.112C361.689 38.112 362.694 38.4933 363.526 39.256C364.358 40.0187 364.774 41.0587 364.774 42.376C364.774 43.6933 364.358 44.7333 363.526 45.496C362.694 46.2933 361.689 46.692 360.51 46.692C359.331 46.692 358.309 46.2933 357.442 45.496C356.61 44.7333 356.194 43.6933 356.194 42.376Z" fill="#504942"/>
</svg>
